<svg xmlns="http://www.w3.org/2000/svg" viewBox="0 0 256 256" width="256" height="256">
  <path d="M211.83 175.75c-3.92-2.1-5.06-2.58-10.37-4.42-6.52-2.28-11.89-4.22-11.89-7.58s3.47-5.94 8.78-5.94c5.85 0 8.5 2.59 13.9 6.22l8.22-12.83c-5.85-3.34-11.33-5.38-19.3-5.38-16.14 0-26.68 9.17-26.68 22.1s11.52 18.23 23.23 23.5c4.78 2.1 6.83 2.86 11.69 4.8 5.7 2.29 9.84 4.5 9.84 8.36 0 5.47-4.94 8.28-11.61 8.28-6.33 0-11.61-2.49-17.78-7.2l-8.5 13.59c6.68 4.22 14.56 6.3 24.31 6.3 18.15 0 29.85-9.66 29.85-23.27 0-11.61-6.84-18.72-23.53-26.03zm-92.4-28.18h-18v34.4h-13.84v-34.4h-18v-11.89h49.84v11.89z" fill="#f44336"/>
  <path d="M102.6 150.36h14.22v26.11h-14.22v-26.11zm8.22-54.76c.76-1.52 1.24-3.13 1.24-4.8 0-7.85-6.42-14.26-14.26-14.26s-14.26 6.41-14.26 14.26c0 1.67.48 3.28 1.24 4.8h-18.14c-.76-1.52-1.24-3.13-1.24-4.8 0-14.45 11.89-26.34 26.34-26.34s26.34 11.89 26.34 26.34c0 1.67-.48 3.28-1.24 4.8h-18.14z" fill="#f44336"/>
</svg>
